<?xml version="1.0" standalone="no"?>
<!DOCTYPE svg PUBLIC "-//W3C//DTD SVG 20010904//EN"
 "http://www.w3.org/TR/2001/REC-SVG-20010904/DTD/svg10.dtd">
<svg version="1.0" xmlns="http://www.w3.org/2000/svg"
 width="225.000000pt" height="225.000000pt" viewBox="0 0 225.000000 225.000000"
 preserveAspectRatio="xMidYMid meet">

<g transform="translate(0.000000,225.000000) scale(0.100000,-0.100000)"
fill="#000000" stroke="none">
<path d="M240 2236 c-90 -24 -172 -95 -214 -185 -21 -46 -21 -48 -21 -941 l0
-895 27 -51 c31 -59 84 -108 147 -138 46 -21 52 -21 951 -21 l905 0 51 27 c59
31 108 84 138 147 21 46 21 52 21 946 0 894 0 900 -21 946 -31 66 -78 114
-142 146 l-57 28 -870 2 c-665 1 -881 -1 -915 -11z m800 -891 c47 -184 86
-331 88 -325 2 5 41 155 86 332 l82 323 227 3 227 2 0 -555 0 -555 -140 0
-140 0 -1 418 0 417 -107 -415 -107 -415 -130 -3 -130 -2 -107 417 -106 418
-1 -417 -1 -418 -140 0 -140 0 0 555 0 555 228 0 227 0 85 -335z"/>
</g>
</svg>
