<?xml version="1.0" standalone="no"?>
<!DOCTYPE svg PUBLIC "-//W3C//DTD SVG 20010904//EN"
 "http://www.w3.org/TR/2001/REC-SVG-20010904/DTD/svg10.dtd">
<svg version="1.0" xmlns="http://www.w3.org/2000/svg"
 width="800.000000pt" height="598.000000pt" viewBox="0 0 800.000000 598.000000"
 preserveAspectRatio="xMidYMid meet">

<g transform="translate(0.000000,598.000000) scale(0.100000,-0.100000)"
fill="#000000" stroke="none">
<path d="M0 2990 l0 -2990 4000 0 4000 0 0 2990 0 2990 -4000 0 -4000 0 0
-2990z m2836 1502 c165 -142 269 -232 609 -529 88 -76 247 -214 353 -306 l194
-167 76 68 c43 38 266 232 497 432 231 200 494 428 584 507 l164 143 203 0
204 0 0 -1650 0 -1650 -201 0 -200 0 -221 193 c-122 105 -292 253 -378 327
-247 212 -533 461 -555 482 -23 23 -42 4 239 247 326 281 361 311 368 311 4 0
9 -89 10 -197 l3 -197 190 -173 c105 -95 193 -172 197 -173 7 0 3 1599 -5
1606 -2 3 -130 -104 -283 -237 -839 -727 -888 -769 -895 -769 -3 0 -41 31 -85
69 -807 699 -1089 941 -1093 941 -4 0 -7 -362 -8 -805 0 -443 2 -805 6 -805 3
1 92 78 196 173 l190 173 3 197 c1 108 6 197 10 197 4 0 52 -40 108 -88 55
-48 194 -167 308 -266 114 -98 205 -182 204 -187 -2 -4 -181 -162 -398 -351
-218 -189 -425 -368 -460 -399 -36 -31 -120 -105 -187 -163 l-122 -106 -201 0
-200 0 0 1650 0 1650 203 0 202 0 171 -148z"/>
</g>
</svg>
